<svg width="34" height="34" viewBox="0 0 34 34" fill="none" xmlns="http://www.w3.org/2000/svg">
<mask id="path-1-inside-1_6_806" fill="white">
<path d="M20.054 16.7483C19.8835 16.7483 19.7251 16.7014 19.5844 16.626V16.628C19.5844 16.8963 19.4801 17.1483 19.2909 17.3371C19.1016 17.5263 18.8498 17.6306 18.5818 17.6306C18.4087 17.6306 18.2483 17.5826 18.1062 17.5051C18.0918 17.7506 17.9937 17.9801 17.8186 18.1553C17.6294 18.3446 17.3776 18.4489 17.1093 18.4489C16.5765 18.4489 16.1438 18.03 16.1126 17.505C15.9477 17.5941 15.7613 17.6408 15.569 17.6285C15.0448 17.5941 14.6343 17.1412 14.6343 16.5971V12.0874L14.1208 12.977C13.9252 13.3173 13.5591 13.5286 13.1649 13.5286C12.9728 13.5286 12.7831 13.4782 12.615 13.3819C12.4058 13.2606 12.2561 13.0658 12.1938 12.8328C12.1312 12.5997 12.1636 12.3559 12.2846 12.1469C12.2848 12.1469 13.9648 9.23768 14.0672 9.05897C14.0794 9.0321 14.1141 8.95417 14.1437 8.88775C14.1719 8.82434 14.1961 8.75925 14.2193 8.69383C14.7259 7.26351 15.9804 6.37503 17.4933 6.37503C19.458 6.37503 21.0564 8.10825 21.0564 10.2387L21.0566 15.7455C21.0566 16.0135 20.9525 16.2654 20.7634 16.4548C20.5741 16.644 20.3223 16.7483 20.054 16.7483L20.054 16.7483ZM17.4934 6.90779C16.1933 6.90779 15.1572 7.64209 14.7214 8.87201C14.6936 8.95011 14.6645 9.02821 14.6307 9.10431C14.5324 9.32476 14.5324 9.32476 14.5047 9.35646L14.501 9.35329C14.3638 9.61213 13.9563 10.3179 12.7459 12.4136C12.6962 12.4995 12.683 12.5993 12.7083 12.6948C12.734 12.7902 12.7956 12.8707 12.8809 12.9199C13.1456 13.0719 13.5081 12.9738 13.6589 12.711L14.6701 10.9604C14.7305 10.8561 14.8526 10.8048 14.9698 10.8365C15.0863 10.8677 15.1672 10.9734 15.1672 11.0939V16.5973C15.1672 16.8569 15.3631 17.0811 15.6039 17.0969C15.7428 17.1042 15.8723 17.0577 15.9696 16.9606C16.058 16.8721 16.1067 16.7543 16.1067 16.6283V13.029C16.1067 12.8818 16.2261 12.7625 16.3733 12.7625C16.5204 12.7625 16.6398 12.8816 16.6398 13.029L16.6396 17.4464C16.6396 17.7054 16.8504 17.9162 17.1094 17.9162C17.2352 17.9162 17.3534 17.8675 17.442 17.779C17.5304 17.6904 17.5791 17.5723 17.5791 17.4464V13.029C17.5791 12.8818 17.6983 12.7625 17.8457 12.7625C17.9928 12.7625 18.1122 12.8816 18.1122 13.029L18.112 16.5869V16.6283C18.112 16.8871 18.3228 17.0979 18.5819 17.0979C18.7076 17.0979 18.8254 17.049 18.9145 16.9602C19.003 16.8719 19.0517 16.7541 19.0517 16.6281V13.0288C19.0517 12.8816 19.1709 12.7623 19.3182 12.7623C19.4654 12.7623 19.5847 12.8814 19.5847 13.0288L19.5844 15.7457C19.5844 16.0048 19.7952 16.2156 20.054 16.2156C20.18 16.2156 20.2978 16.1667 20.3863 16.0784C20.475 15.9896 20.5236 15.8715 20.5236 15.7457L20.5238 10.2388C20.5238 8.4023 19.1644 6.90785 17.4933 6.90785L17.4934 6.90779Z"/>
</mask>
<path d="M20.054 16.7483C19.8835 16.7483 19.7251 16.7014 19.5844 16.626V16.628C19.5844 16.8963 19.4801 17.1483 19.2909 17.3371C19.1016 17.5263 18.8498 17.6306 18.5818 17.6306C18.4087 17.6306 18.2483 17.5826 18.1062 17.5051C18.0918 17.7506 17.9937 17.9801 17.8186 18.1553C17.6294 18.3446 17.3776 18.4489 17.1093 18.4489C16.5765 18.4489 16.1438 18.03 16.1126 17.505C15.9477 17.5941 15.7613 17.6408 15.569 17.6285C15.0448 17.5941 14.6343 17.1412 14.6343 16.5971V12.0874L14.1208 12.977C13.9252 13.3173 13.5591 13.5286 13.1649 13.5286C12.9728 13.5286 12.7831 13.4782 12.615 13.3819C12.4058 13.2606 12.2561 13.0658 12.1938 12.8328C12.1312 12.5997 12.1636 12.3559 12.2846 12.1469C12.2848 12.1469 13.9648 9.23768 14.0672 9.05897C14.0794 9.0321 14.1141 8.95417 14.1437 8.88775C14.1719 8.82434 14.1961 8.75925 14.2193 8.69383C14.7259 7.26351 15.9804 6.37503 17.4933 6.37503C19.458 6.37503 21.0564 8.10825 21.0564 10.2387L21.0566 15.7455C21.0566 16.0135 20.9525 16.2654 20.7634 16.4548C20.5741 16.644 20.3223 16.7483 20.054 16.7483L20.054 16.7483ZM17.4934 6.90779C16.1933 6.90779 15.1572 7.64209 14.7214 8.87201C14.6936 8.95011 14.6645 9.02821 14.6307 9.10431C14.5324 9.32476 14.5324 9.32476 14.5047 9.35646L14.501 9.35329C14.3638 9.61213 13.9563 10.3179 12.7459 12.4136C12.6962 12.4995 12.683 12.5993 12.7083 12.6948C12.734 12.7902 12.7956 12.8707 12.8809 12.9199C13.1456 13.0719 13.5081 12.9738 13.6589 12.711L14.6701 10.9604C14.7305 10.8561 14.8526 10.8048 14.9698 10.8365C15.0863 10.8677 15.1672 10.9734 15.1672 11.0939V16.5973C15.1672 16.8569 15.3631 17.0811 15.6039 17.0969C15.7428 17.1042 15.8723 17.0577 15.9696 16.9606C16.058 16.8721 16.1067 16.7543 16.1067 16.6283V13.029C16.1067 12.8818 16.2261 12.7625 16.3733 12.7625C16.5204 12.7625 16.6398 12.8816 16.6398 13.029L16.6396 17.4464C16.6396 17.7054 16.8504 17.9162 17.1094 17.9162C17.2352 17.9162 17.3534 17.8675 17.442 17.779C17.5304 17.6904 17.5791 17.5723 17.5791 17.4464V13.029C17.5791 12.8818 17.6983 12.7625 17.8457 12.7625C17.9928 12.7625 18.1122 12.8816 18.1122 13.029L18.112 16.5869V16.6283C18.112 16.8871 18.3228 17.0979 18.5819 17.0979C18.7076 17.0979 18.8254 17.049 18.9145 16.9602C19.003 16.8719 19.0517 16.7541 19.0517 16.6281V13.0288C19.0517 12.8816 19.1709 12.7623 19.3182 12.7623C19.4654 12.7623 19.5847 12.8814 19.5847 13.0288L19.5844 15.7457C19.5844 16.0048 19.7952 16.2156 20.054 16.2156C20.18 16.2156 20.2978 16.1667 20.3863 16.0784C20.475 15.9896 20.5236 15.8715 20.5236 15.7457L20.5238 10.2388C20.5238 8.4023 19.1644 6.90785 17.4933 6.90785L17.4934 6.90779Z" fill="#4CAF4F"/>
<path d="M20.054 16.7483V15.8039H23.3908L20.549 17.5527L20.054 16.7483ZM19.5844 16.626H18.64V15.0479L20.0307 15.7937L19.5844 16.626ZM19.2909 17.3371L18.623 16.6693L18.6239 16.6684L19.2909 17.3371ZM18.1062 17.5051L17.1633 17.45L17.2502 15.9636L18.5578 16.6757L18.1062 17.5051ZM17.8186 18.1553L18.4868 18.8228L18.4864 18.8231L17.8186 18.1553ZM16.1126 17.505L15.6635 16.6741L16.9675 15.9694L17.0553 17.449L16.1126 17.505ZM15.569 17.6285L15.5085 18.571L15.5072 18.5709L15.569 17.6285ZM14.6343 12.0874L13.8163 11.6153L15.5788 8.562V12.0874H14.6343ZM14.1208 12.977L13.302 12.5064L13.3028 12.5049L14.1208 12.977ZM12.615 13.3819L12.1455 14.2014L12.1413 14.199L12.615 13.3819ZM12.1938 12.8328L13.106 12.588L13.1062 12.5891L12.1938 12.8328ZM12.2846 12.1469L11.4673 11.6737L11.7401 11.2025H12.2846V12.1469ZM14.0672 9.05897L14.9274 9.44898L14.9089 9.48988L14.8865 9.52883L14.0672 9.05897ZM14.1437 8.88775L13.2807 8.50398L13.2807 8.50397L14.1437 8.88775ZM14.2193 8.69383L15.1095 9.00917L15.1094 9.00943L14.2193 8.69383ZM21.0564 10.2387L20.112 10.2387V10.2387H21.0564ZM21.0566 15.7455L22.001 15.7455V15.7455H21.0566ZM20.7634 16.4548L21.4318 17.122L21.4312 17.1226L20.7634 16.4548ZM20.054 16.7483V17.6928H16.7172L19.559 15.944L20.054 16.7483ZM17.4934 6.90779V5.96335H18.7454L18.4015 7.16725L17.4934 6.90779ZM14.7214 8.87201L15.6117 9.18739L15.611 9.18942L14.7214 8.87201ZM14.6307 9.10431L15.4935 9.48841L15.4932 9.48891L14.6307 9.10431ZM14.5047 9.35646L15.2159 9.97788L14.598 10.685L13.8874 10.0712L14.5047 9.35646ZM14.501 9.35329L13.6665 8.91103L14.2214 7.86395L15.1183 8.63852L14.501 9.35329ZM12.7459 12.4136L13.5637 12.8859L13.5633 12.8866L12.7459 12.4136ZM12.7083 12.6948L11.7964 12.9403L11.7956 12.9374L12.7083 12.6948ZM12.8809 12.9199L12.4105 13.7389L12.4087 13.7378L12.8809 12.9199ZM13.6589 12.711L12.8398 12.2408L12.8411 12.2386L13.6589 12.711ZM14.6701 10.9604L13.8522 10.488L13.8528 10.487L14.6701 10.9604ZM14.9698 10.8365L14.7254 11.7488L14.723 11.7482L14.9698 10.8365ZM15.6039 17.0969L15.5541 18.0401L15.5419 18.0393L15.6039 17.0969ZM15.9696 16.9606L16.6374 17.6284L16.6368 17.629L15.9696 16.9606ZM16.6398 13.029H17.5842V13.029L16.6398 13.029ZM16.6396 17.4464H15.6952V17.4464L16.6396 17.4464ZM17.442 17.779L18.1104 18.4462L18.1091 18.4475L17.442 17.779ZM18.1122 13.029H19.0566V13.029L18.1122 13.029ZM18.112 16.5869H17.1676V16.5869L18.112 16.5869ZM18.9145 16.9602L19.5817 17.6287L19.5811 17.6293L18.9145 16.9602ZM19.5847 13.0288H20.5292V13.0289L19.5847 13.0288ZM19.5844 15.7457H18.64V15.7455L19.5844 15.7457ZM20.3863 16.0784L21.0541 16.7462L21.0534 16.7469L20.3863 16.0784ZM20.5236 15.7457H19.5792V15.7456L20.5236 15.7457ZM20.5238 10.2388H21.4682V10.2388L20.5238 10.2388ZM17.4933 6.90785V7.85229H16.2413L16.5852 6.64839L17.4933 6.90785ZM20.054 17.6928C19.7062 17.6928 19.3958 17.5965 19.1381 17.4583L20.0307 15.7937C20.0429 15.8002 20.0507 15.8027 20.0537 15.8035C20.0564 15.8042 20.056 15.8039 20.054 15.8039V17.6928ZM20.5289 16.626V16.628H18.64V16.626H20.5289ZM20.5289 16.628C20.5289 17.146 20.3256 17.639 19.9578 18.0058L18.6239 16.6684C18.6307 16.6617 18.634 16.6559 18.636 16.6512C18.6379 16.6464 18.64 16.6392 18.64 16.628H20.5289ZM19.9587 18.0049C19.5922 18.3714 19.1001 18.5751 18.5818 18.5751V16.6862C18.5926 16.6862 18.5997 16.6842 18.6046 16.6822C18.6094 16.6802 18.6157 16.6766 18.623 16.6693L19.9587 18.0049ZM18.5818 18.5751C18.2295 18.5751 17.9151 18.4765 17.6545 18.3346L18.5578 16.6757C18.5701 16.6824 18.5779 16.685 18.581 16.6858C18.5837 16.6865 18.5835 16.6862 18.5818 16.6862V18.5751ZM19.049 17.5603C19.0218 18.0251 18.8332 18.476 18.4868 18.8228L17.1504 17.4878C17.154 17.4843 17.156 17.4812 17.1577 17.4773C17.1596 17.4731 17.1625 17.4644 17.1633 17.45L19.049 17.5603ZM18.4864 18.8231C18.1199 19.1897 17.6277 19.3933 17.1093 19.3933V17.5044C17.1203 17.5044 17.1275 17.5024 17.1324 17.5004C17.1372 17.4984 17.1434 17.4949 17.1508 17.4875L18.4864 18.8231ZM17.1093 19.3933C16.0667 19.3933 15.23 18.575 15.1698 17.561L17.0553 17.449C17.0563 17.465 17.0629 17.4791 17.0745 17.4902C17.0802 17.4956 17.0859 17.4991 17.0909 17.5011C17.0953 17.5029 17.1009 17.5044 17.1093 17.5044V19.3933ZM16.5616 18.3358C16.2566 18.5007 15.8949 18.5958 15.5085 18.571L15.6296 16.686C15.6296 16.686 15.6316 16.6862 15.6366 16.685C15.6419 16.6838 15.6511 16.6808 15.6635 16.6741L16.5616 18.3358ZM15.5072 18.5709C14.4586 18.5021 13.6899 17.6103 13.6899 16.5971H15.5788C15.5788 16.6291 15.5903 16.6536 15.6049 16.6697C15.619 16.6853 15.6287 16.6859 15.6308 16.686L15.5072 18.5709ZM13.6899 16.5971V12.0874H15.5788V16.5971H13.6899ZM15.4523 12.5596L14.9388 13.4492L13.3028 12.5049L13.8163 11.6153L15.4523 12.5596ZM14.9396 13.4477C14.5747 14.0826 13.8954 14.473 13.1649 14.473V12.5841C13.2228 12.5841 13.2757 12.552 13.302 12.5064L14.9396 13.4477ZM13.1649 14.473C12.8077 14.473 12.4562 14.3794 12.1455 14.2014L13.0846 12.5624C13.11 12.577 13.1379 12.5841 13.1649 12.5841V14.473ZM12.1413 14.199C11.7173 13.9531 11.4087 13.5531 11.2814 13.0766L13.1062 12.5891C13.1054 12.5858 13.103 12.5801 13.0985 12.5742C13.094 12.5683 13.0898 12.5655 13.0887 12.5648L12.1413 14.199ZM11.2817 13.0777C11.1539 12.6016 11.2208 12.0994 11.4673 11.6737L13.1019 12.6202C13.1033 12.6179 13.1056 12.6125 13.1066 12.6048C13.1076 12.5972 13.1068 12.5911 13.106 12.588L11.2817 13.0777ZM12.2846 11.2025C11.8213 11.3239 11.4745 11.6614 11.4719 11.6657C11.4711 11.6672 11.4698 11.6694 11.4694 11.6701C11.4692 11.6705 11.4688 11.6711 11.4686 11.6714C11.4685 11.6715 11.4684 11.6718 11.4683 11.6719C11.4682 11.6721 11.4682 11.6721 11.4686 11.6714C11.4692 11.6703 11.4703 11.6685 11.4719 11.6658C11.475 11.6604 11.4796 11.6523 11.4858 11.6417C11.4981 11.6204 11.5162 11.5891 11.5392 11.5492C11.5854 11.4693 11.6514 11.355 11.7309 11.2173C11.89 10.9418 12.1032 10.5725 12.3196 10.1977C12.7532 9.44687 13.1976 8.67689 13.248 8.58911L14.8865 9.52883C14.8344 9.61976 14.3876 10.3938 13.9555 11.1422C13.739 11.5171 13.5258 11.8863 13.3666 12.1619C13.2871 12.2997 13.221 12.414 13.1748 12.494C13.1518 12.534 13.1336 12.5653 13.1212 12.5868C13.1151 12.5975 13.1103 12.6058 13.107 12.6114C13.1054 12.6142 13.104 12.6165 13.1031 12.6182C13.1026 12.619 13.102 12.62 13.1015 12.6209C13.1013 12.6213 13.1007 12.6223 13.1 12.6236C13.0995 12.6243 13.0982 12.6266 13.0973 12.6281C13.0947 12.6325 12.7479 12.9699 12.2846 13.0914V11.2025ZM13.2071 8.66896C13.2175 8.64603 13.2504 8.57211 13.2807 8.50398L15.0066 9.27152C14.9779 9.33624 14.9414 9.41817 14.9274 9.44898L13.2071 8.66896ZM13.2807 8.50397C13.2939 8.47445 13.3084 8.43674 13.3291 8.37824L15.1094 9.00943C15.0838 9.08177 15.0499 9.17422 15.0066 9.27153L13.2807 8.50397ZM13.329 8.3785C13.9687 6.57262 15.5787 5.43058 17.4933 5.43058V7.31947C16.382 7.31947 15.4831 7.9544 15.1095 9.00917L13.329 8.3785ZM17.4933 5.43058C20.0502 5.43058 22.0009 7.66012 22.0009 10.2387H20.112C20.112 8.55637 18.8659 7.31947 17.4933 7.31947V5.43058ZM22.0009 10.2387L22.001 15.7455L20.1121 15.7456L20.112 10.2387L22.0009 10.2387ZM22.001 15.7455C22.001 16.2634 21.7978 16.7553 21.4318 17.122L20.0949 15.7876C20.1024 15.7801 20.106 15.7737 20.1081 15.7688C20.1101 15.7638 20.1121 15.7565 20.1121 15.7455H22.001ZM21.4312 17.1226C21.0646 17.4892 20.5724 17.6928 20.054 17.6928V15.8039C20.0651 15.8039 20.0723 15.8019 20.0771 15.7999C20.082 15.7979 20.0882 15.7943 20.0956 15.787L21.4312 17.1226ZM19.559 15.944L19.559 15.944L20.549 17.5527L20.549 17.5527L19.559 15.944ZM17.4934 7.85224C16.5954 7.85224 15.9145 8.33259 15.6117 9.18739L13.8312 8.55663C14.3998 6.95159 15.7913 5.96335 17.4934 5.96335V7.85224ZM15.611 9.18942C15.5811 9.27297 15.5424 9.37848 15.4935 9.48841L13.7679 8.7202C13.7867 8.67794 13.806 8.62725 13.8319 8.5546L15.611 9.18942ZM15.4932 9.48891C15.45 9.58591 15.4138 9.66783 15.386 9.72332C15.3688 9.75776 15.341 9.81083 15.3006 9.86962C15.2596 9.92919 15.2192 9.97411 15.2159 9.97788L13.7935 8.73505C13.7957 8.73252 13.7949 8.73334 13.7938 8.73464C13.7924 8.73632 13.7887 8.74059 13.7839 8.74647C13.7789 8.75255 13.7726 8.7604 13.7655 8.76974C13.7584 8.77916 13.7511 8.78919 13.7439 8.79976C13.7291 8.82129 13.7177 8.84015 13.7096 8.85441C13.702 8.86773 13.6974 8.87694 13.6963 8.87902C13.6953 8.88116 13.6959 8.8799 13.6992 8.87303C13.7023 8.86637 13.7067 8.85678 13.713 8.84282C13.7192 8.82899 13.7267 8.81228 13.736 8.79163C13.7452 8.77102 13.7557 8.74739 13.7681 8.7197L15.4932 9.48891ZM13.8874 10.0712L13.8837 10.0681L15.1183 8.63852L15.122 8.64169L13.8874 10.0712ZM15.3355 9.79555C15.1877 10.0745 14.7657 10.8048 13.5637 12.8859L11.9281 11.9412C13.1469 9.8309 13.54 9.1498 13.6665 8.91103L15.3355 9.79555ZM13.5633 12.8866C13.6389 12.756 13.66 12.5984 13.6211 12.4522L11.7956 12.9374C11.706 12.6002 11.7534 12.243 11.9285 11.9406L13.5633 12.8866ZM13.6203 12.4492C13.5815 12.3049 13.4859 12.1787 13.3531 12.102L12.4087 13.7378C12.1053 13.5627 11.8866 13.2756 11.7964 12.9403L13.6203 12.4492ZM13.3513 12.1009C13.2438 12.0392 13.1393 12.0396 13.0671 12.059C12.9951 12.0784 12.9029 12.1309 12.8398 12.2408L14.478 13.1811C14.0664 13.8983 13.1257 14.1497 12.4105 13.7389L13.3513 12.1009ZM12.8411 12.2386L13.8522 10.488L15.4879 11.4327L14.4767 13.1833L12.8411 12.2386ZM13.8528 10.487C14.1256 10.016 14.6824 9.78032 15.2165 9.92489L14.723 11.7482C15.0228 11.8293 15.3353 11.6961 15.4873 11.4337L13.8528 10.487ZM15.2142 9.92426C15.744 10.0662 16.1116 10.5464 16.1116 11.0939H14.2227C14.2227 11.4004 14.4285 11.6693 14.7254 11.7488L15.2142 9.92426ZM16.1116 11.0939V16.5973H14.2227V11.0939H16.1116ZM16.1116 16.5973C16.1116 16.4897 16.0718 16.3918 16.0063 16.3169C15.941 16.2422 15.8257 16.165 15.666 16.1545L15.5419 18.0393C14.7469 17.987 14.2227 17.2944 14.2227 16.5973H16.1116ZM15.6538 16.1538C15.5422 16.1479 15.4059 16.1887 15.3023 16.2922L16.6368 17.629C16.3386 17.9266 15.9433 18.0606 15.5541 18.04L15.6538 16.1538ZM15.3017 16.2927C15.2121 16.3824 15.1623 16.5052 15.1623 16.6283H17.0512C17.0512 17.0034 16.9039 17.3619 16.6374 17.6284L15.3017 16.2927ZM15.1623 16.6283V13.029H17.0512V16.6283H15.1623ZM15.1623 13.029C15.1623 12.3602 15.7045 11.818 16.3733 11.818V13.7069C16.7477 13.7069 17.0512 13.4034 17.0512 13.029H15.1623ZM16.3733 11.818C17.0417 11.818 17.5842 12.3597 17.5842 13.029H15.6953C15.6953 13.4036 15.9992 13.7069 16.3733 13.7069V11.818ZM17.5842 13.029L17.584 17.4465L15.6952 17.4464L15.6953 13.029L17.5842 13.029ZM17.584 17.4464C17.584 17.1838 17.372 16.9717 17.1094 16.9717V18.8606C16.3288 18.8606 15.6952 18.227 15.6952 17.4464H17.584ZM17.1094 16.9717C16.9864 16.9717 16.8642 17.0213 16.7748 17.1105L18.1091 18.4475C17.8425 18.7137 17.4839 18.8606 17.1094 18.8606V16.9717ZM16.7735 17.1118C16.6842 17.2013 16.6347 17.3235 16.6347 17.4464H18.5236C18.5236 17.821 18.3766 18.1795 18.1104 18.4462L16.7735 17.1118ZM16.6347 17.4464V13.029H18.5236V17.4464H16.6347ZM16.6347 13.029C16.6347 12.3606 17.1763 11.818 17.8457 11.818V13.7069C18.2203 13.7069 18.5236 13.403 18.5236 13.029H16.6347ZM17.8457 11.818C18.5141 11.818 19.0566 12.3596 19.0566 13.029H17.1677C17.1677 13.4036 17.4716 13.7069 17.8457 13.7069V11.818ZM19.0566 13.029L19.0564 16.5869L17.1676 16.5869L17.1677 13.0289L19.0566 13.029ZM19.0564 16.5869V16.6283H17.1676V16.5869H19.0564ZM19.0564 16.6283C19.0564 16.3651 18.8439 16.1534 18.5819 16.1534V18.0423C17.8016 18.0423 17.1676 17.4092 17.1676 16.6283H19.0564ZM18.5819 16.1534C18.4564 16.1534 18.3349 16.2045 18.248 16.2911L19.5811 17.6293C19.3159 17.8935 18.9588 18.0423 18.5819 18.0423V16.1534ZM18.2473 16.2918C18.157 16.3819 18.1073 16.5051 18.1073 16.6281H19.9962C19.9962 17.0031 19.849 17.3619 19.5817 17.6287L18.2473 16.2918ZM18.1073 16.6281V13.0288H19.9962V16.6281H18.1073ZM18.1073 13.0288C18.1073 12.3604 18.6489 11.8179 19.3182 11.8179V13.7067C19.6928 13.7067 19.9962 13.4028 19.9962 13.0288H18.1073ZM19.3182 11.8179C19.9866 11.8179 20.5292 12.3595 20.5292 13.0288H18.6403C18.6403 13.4034 18.9442 13.7067 19.3182 13.7067V11.8179ZM20.5292 13.0289L20.5288 15.7458L18.64 15.7455L18.6403 13.0287L20.5292 13.0289ZM20.5288 15.7457C20.5288 15.4837 20.3172 15.2711 20.054 15.2711V17.16C19.2731 17.16 18.64 16.526 18.64 15.7457H20.5288ZM20.054 15.2711C19.9301 15.2711 19.8079 15.3213 19.7191 15.41L21.0534 16.7469C20.7877 17.0121 20.4299 17.16 20.054 17.16V15.2711ZM19.7184 15.4106C19.6285 15.5005 19.5792 15.6233 19.5792 15.7457H21.468C21.468 16.1197 21.3216 16.4787 21.0541 16.7462L19.7184 15.4106ZM19.5792 15.7456L19.5793 10.2388L21.4682 10.2388L21.468 15.7457L19.5792 15.7456ZM19.5793 10.2388C19.5793 8.83783 18.5607 7.85229 17.4933 7.85229V5.9634C19.7681 5.9634 21.4682 7.96677 21.4682 10.2388H19.5793ZM16.5852 6.64839L16.5853 6.64833L18.4015 7.16725L18.4014 7.16731L16.5852 6.64839Z" fill="#4CAF4F" mask="url(#path-1-inside-1_6_806)"/>
<path d="M11.422 21.8109C11.2955 21.887 11.132 21.8459 11.0564 21.7196C10.9806 21.5934 11.0216 21.4297 11.1476 21.354M11.422 21.8109L13.7245 18.7127C13.9469 18.579 14.2403 18.6318 14.3775 18.8302M11.422 21.8109L14.5083 19.9593H14.5085L14.5088 19.9591M11.422 21.8109L15.6933 20.3441C15.8011 20.2794 15.8772 20.1769 15.9076 20.0553M11.1476 21.354L14.2341 19.5024C14.3419 19.4376 14.4182 19.335 14.4486 19.2137M11.1476 21.354L11.1789 21.406L11.2847 21.5825L11.2849 21.5828L11.3326 21.6623L11.3906 21.7589L11.3907 21.7588L11.3907 21.7588L11.391 21.7586M11.1476 21.354L11.1789 21.406M14.4486 19.2137C14.4819 19.0805 14.4566 18.9443 14.3775 18.8302M14.4486 19.2137L14.5247 19.2328L14.5175 19.0762C14.5124 18.9684 14.4809 18.8728 14.4276 18.7959L14.4274 18.7956L14.3775 18.8302M14.4486 19.2137L14.5247 19.2328L14.5322 19.3944L14.3777 19.4871H14.3775L14.2654 19.5544L14.2653 19.5544L14.2653 19.5544L11.1791 21.4059M14.3775 18.8302L14.4274 18.7956L12.1486 23.0212C12.2455 22.963 12.2776 22.8369 12.2188 22.7391C12.1606 22.6421 12.0341 22.6101 11.9367 22.6685L15.023 20.8171C15.0939 20.7745 15.1683 20.7423 15.2442 20.7202L15.7228 20.3934L15.7229 20.3933L15.7492 20.3753C15.8615 20.2987 15.9358 20.1924 15.9663 20.0701L15.9664 20.07L15.9076 20.0553M11.1791 21.4059C11.2762 21.3479 11.4026 21.3794 11.4612 21.4765C11.4613 21.4767 11.4614 21.4769 11.4616 21.4771C11.5198 21.5749 11.4877 21.7005 11.391 21.7586M11.1791 21.4059C11.179 21.406 11.179 21.406 11.1789 21.406M11.1791 21.4059L11.1789 21.406M11.391 21.7586L14.477 19.9073L14.4771 19.9073L14.4773 19.9072C14.4773 19.9072 14.4774 19.9071 14.4775 19.907L14.5083 19.9583L14.5085 19.9586L14.5088 19.9591M11.391 21.7586L11.2852 21.5827L11.285 21.5823L11.2492 21.5228L11.1789 21.406M14.5088 19.9591V19.8874C14.5683 19.8484 14.6228 19.8032 14.6715 19.7528L15.1795 19.4876L15.1796 19.4876L15.2077 19.4729C15.2894 19.4303 15.3717 19.4103 15.4499 19.4103C15.4922 19.4103 15.5359 19.4156 15.5803 19.4266C15.5803 19.4266 15.5803 19.4266 15.5804 19.4266C15.5805 19.4267 15.5807 19.4267 15.5808 19.4267L15.6802 19.0274M14.5088 19.9591L15.21 19.5384C15.3175 19.474 15.4433 19.4552 15.5657 19.4855C15.6873 19.5159 15.7899 19.592 15.8545 19.6996C15.9191 19.8074 15.938 19.9338 15.9076 20.0553M15.6802 19.0274C15.6802 19.0274 15.6802 19.0274 15.6802 19.0274M15.6802 19.0274C15.9236 19.0882 16.1305 19.2418 16.2594 19.4566L16.3114 19.4254M15.6802 19.0274L15.6949 18.9685M15.6802 19.0274L15.5804 19.4266C15.7186 19.4612 15.8331 19.546 15.9064 19.6683C15.9064 19.6683 15.9065 19.6684 15.9065 19.6685C15.9065 19.6685 15.9065 19.6685 15.9065 19.6685C15.9801 19.7913 16.0008 19.9322 15.9664 20.0698L15.9664 20.0699L15.9076 20.0553M15.6802 19.0274C15.6801 19.0274 15.6801 19.0274 15.68 19.0274L15.6795 19.0272C15.6065 19.0091 15.5325 18.9998 15.459 18.9992M15.6802 19.0274L15.6949 18.9685M15.2349 21.1698L15.5011 21.0101L15.7756 21.1721C15.8578 21.2206 15.9199 21.2813 15.9619 21.3515L15.9621 21.3517C15.9621 21.3518 15.9622 21.3519 15.9622 21.352L15.9104 21.3831M15.2349 21.1698L16.0223 21.7536C16.0566 21.6155 16.0357 21.4747 15.9623 21.352L15.9104 21.3831M15.2349 21.1698L15.2661 21.2219M15.2349 21.1698L15.2348 21.1699L15.2661 21.2219M15.9104 21.3831C15.7771 21.161 15.4879 21.0887 15.2661 21.2219M15.9104 21.3831C15.9752 21.4908 15.994 21.6173 15.9637 21.7389L15.2661 21.2219M16.3604 21.0979C16.3627 21.1016 16.3649 21.1052 16.3671 21.1089L16.3604 21.0979ZM16.3604 21.0979C16.3445 21.1103 16.3283 21.1225 16.3118 21.1343C16.3129 21.1361 16.314 21.1379 16.3151 21.1397L16.3604 21.0979ZM16.2869 20.3777C16.3209 20.3124 16.3475 20.2428 16.3657 20.1698L16.2869 20.3777ZM16.2869 20.3777C16.3038 20.3882 16.3207 20.3991 16.3373 20.4103C16.3752 20.3399 16.4046 20.2642 16.4245 20.1844C16.4894 19.9249 16.4492 19.6554 16.3114 19.4254M16.2869 20.3777L16.3657 20.1697C16.4266 19.9263 16.3882 19.6716 16.2596 19.457L16.2595 19.4567C16.2594 19.4567 16.2594 19.4566 16.2594 19.4566L16.3114 19.4254M16.3114 19.4254C16.1737 19.1958 15.9547 19.0334 15.6949 18.9685M15.6949 18.9685L15.4537 18.9381M15.4537 18.9381C15.4558 18.9585 15.4576 18.9789 15.459 18.9992M15.4537 18.9381C15.4524 18.9381 15.4512 18.9381 15.4499 18.9381C15.2902 18.9381 15.1334 18.979 14.9892 19.0543M15.4537 18.9381L14.9892 19.0543M15.459 18.9992C15.4597 19.0103 15.4604 19.0213 15.4609 19.0324L15.4499 19.0329L15.1568 19.0465M15.459 18.9992C15.456 18.9992 15.4529 18.9991 15.4499 18.9992C15.3503 18.9992 15.2514 19.0152 15.1568 19.0465M15.1568 19.0465L14.9892 19.0543M15.1568 19.0465C15.1087 19.0624 15.0617 19.0822 15.0162 19.106C14.9997 19.1146 14.9833 19.1238 14.9673 19.1334L14.9671 19.1335L14.9335 19.1536M14.9892 19.0543L14.72 19.2817L14.7201 19.2817L14.9066 19.3284C14.9066 19.3284 14.9066 19.3284 14.9066 19.3285C14.9212 19.2704 14.9301 19.2119 14.9335 19.1536M14.9892 19.0543L14.9171 18.9162M14.9892 19.0543C14.9817 18.8934 14.9393 18.735 14.8579 18.5935C14.8394 18.6018 14.821 18.6104 14.8029 18.6193M14.9335 19.1536C14.9354 19.1213 14.9356 19.089 14.9342 19.0568C14.9321 19.0095 14.9263 18.9624 14.9171 18.9162M14.9335 19.1536L14.9171 18.9162M14.9171 18.9162L14.7707 18.6357C14.7813 18.6301 14.7921 18.6246 14.8029 18.6193M14.9171 18.9162L14.7657 18.5614C14.7788 18.5803 14.7912 18.5996 14.8029 18.6193M14.9171 18.9162C14.8963 18.8123 14.8579 18.7121 14.8029 18.6193M16.0155 20.7653L16.0962 20.6285C16.0613 20.6612 16.0237 20.6914 15.9837 20.7187C15.9683 20.7292 15.9525 20.7393 15.9365 20.749L15.9362 20.7491L15.9021 20.7696L16.0155 20.7653ZM8.47413 18.5677L8.42044 18.5394C8.41057 18.5572 8.386 18.6014 8.3497 18.6668C8.34071 18.683 8.33101 18.7005 8.32063 18.7192C8.33913 18.7284 8.3578 18.7365 8.37649 18.7436C8.40842 18.6861 8.44096 18.6274 8.47413 18.5677ZM12.6942 23.9312C12.6941 23.9312 12.6941 23.9312 12.694 23.9312L12.6942 23.9312Z" fill="#4CAF4F" stroke="#4CAF4F" stroke-width="0.928093"/>
<path d="M24.6022 19.4185L24.6021 19.4185L24.6022 19.4185ZM24.6022 19.4185C24.5032 19.2412 24.5072 19.0229 24.612 18.8482L24.6022 19.4185ZM18.7594 18.9989C18.6856 18.9996 18.6114 19.0089 18.5382 19.0272L18.7594 18.9989ZM18.7594 18.9989C18.7608 18.9787 18.7626 18.9583 18.7647 18.938L18.7594 18.9989ZM24.1771 19.7496L24.137 19.6774L24.1771 19.7496ZM23.0393 21.4058C23.0392 21.4058 23.0391 21.4057 23.039 21.4056L23.0391 21.4057L23.0393 21.4058ZM21.5242 23.9315C21.5241 23.9314 21.524 23.9314 21.5239 23.9313L21.5242 23.9315ZM21.5237 23.9312L21.5238 23.9313L21.5237 23.9312Z" fill="#4CAF4F" stroke="#4CAF4F" stroke-width="0.928093"/>
</svg>
