<svg width="46" height="39" viewBox="0 0 46 39" fill="none" xmlns="http://www.w3.org/2000/svg">
<path d="M45.2679 26.4643C45.2679 33.3876 39.6555 39 32.7322 39L13.9286 39C12.0054 39 10.4464 37.441 10.4464 35.5179L10.4464 11.8393C10.4464 7.99299 13.5645 4.87497 17.4107 4.87497L41.7857 4.87497C43.7089 4.87497 45.2679 6.43398 45.2679 8.35712L45.2679 26.4643Z" fill="#E8F5E9"/>
<path d="M18.7453 13.2397C18.528 13.2397 18.3514 13.0634 18.3514 12.8458V12.1763C18.3514 11.959 18.5277 11.7823 18.7453 11.7823C18.9626 11.7823 19.1393 11.9587 19.1393 12.1763V12.8458C19.1393 13.0634 18.9626 13.2397 18.7453 13.2397Z" fill="#103E13"/>
<path d="M17.0891 13.2397C16.8718 13.2397 16.6951 13.0634 16.6951 12.8458V12.1763C16.6951 11.959 16.8715 11.7823 17.0891 11.7823C17.3064 11.7823 17.483 11.9587 17.483 12.1763V12.8458C17.4827 13.0634 17.3066 13.2397 17.0891 13.2397Z" fill="#103E13"/>
<path d="M15.4329 13.2397C15.2156 13.2397 15.039 13.0634 15.039 12.8458V12.1763C15.039 11.959 15.2153 11.7823 15.4329 11.7823C15.6502 11.7823 15.8269 11.9587 15.8269 12.1763V12.8458C15.8269 13.0634 15.6505 13.2397 15.4329 13.2397Z" fill="#103E13"/>
<path d="M18.7453 15.9775C18.528 15.9775 18.3514 15.8011 18.3514 15.5835V14.9143C18.3514 14.697 18.5277 14.5204 18.7453 14.5204C18.9626 14.5204 19.1393 14.6967 19.1393 14.9143V15.5835C19.1393 15.8011 18.9626 15.9775 18.7453 15.9775Z" fill="#103E13"/>
<path d="M17.0891 15.9775C16.8718 15.9775 16.6951 15.8011 16.6951 15.5835V14.9143C16.6951 14.697 16.8715 14.5204 17.0891 14.5204C17.3064 14.5204 17.483 14.6967 17.483 14.9143V15.5835C17.4827 15.8011 17.3066 15.9775 17.0891 15.9775Z" fill="#103E13"/>
<path d="M15.4329 15.9775C15.2156 15.9775 15.039 15.8011 15.039 15.5835V14.9143C15.039 14.697 15.2153 14.5204 15.4329 14.5204C15.6502 14.5204 15.8269 14.6967 15.8269 14.9143V15.5835C15.8269 15.8011 15.6505 15.9775 15.4329 15.9775Z" fill="#103E13"/>
<path d="M18.7453 18.7154C18.528 18.7154 18.3514 18.539 18.3514 18.3214V17.6519C18.3514 17.4346 18.5277 17.258 18.7453 17.258C18.9626 17.258 19.1393 17.4344 19.1393 17.6519V18.3214C19.1393 18.539 18.9626 18.7154 18.7453 18.7154Z" fill="#103E13"/>
<path d="M17.0891 18.7154C16.8718 18.7154 16.6951 18.539 16.6951 18.3214V17.6519C16.6951 17.4346 16.8715 17.258 17.0891 17.258C17.3064 17.258 17.483 17.4344 17.483 17.6519V18.3214C17.4827 18.539 17.3066 18.7154 17.0891 18.7154Z" fill="#103E13"/>
<path d="M15.4329 18.7154C15.2156 18.7154 15.039 18.539 15.039 18.3214V17.6519C15.039 17.4346 15.2153 17.258 15.4329 17.258C15.6502 17.258 15.8269 17.4344 15.8269 17.6519V18.3214C15.8269 18.539 15.6505 18.7154 15.4329 18.7154Z" fill="#103E13"/>
<path d="M18.7453 21.4526C18.528 21.4526 18.3514 21.2763 18.3514 21.0587V20.3892C18.3514 20.1719 18.5277 19.9953 18.7453 19.9953C18.9626 19.9953 19.1393 20.1716 19.1393 20.3892V21.0587C19.1393 21.2763 18.9626 21.4526 18.7453 21.4526Z" fill="#103E13"/>
<path d="M17.0891 21.4526C16.8718 21.4526 16.6951 21.2763 16.6951 21.0587V20.3892C16.6951 20.1719 16.8715 19.9953 17.0891 19.9953C17.3064 19.9953 17.483 20.1716 17.483 20.3892V21.0587C17.4827 21.2763 17.3066 21.4526 17.0891 21.4526Z" fill="#103E13"/>
<path d="M15.4329 21.4526C15.2156 21.4526 15.039 21.2763 15.039 21.0587V20.3892C15.039 20.1719 15.2153 19.9953 15.4329 19.9953C15.6502 19.9953 15.8269 20.1716 15.8269 20.3892V21.0587C15.8269 21.2763 15.6505 21.4526 15.4329 21.4526Z" fill="#103E13"/>
<path d="M18.7453 24.1904C18.528 24.1904 18.3514 24.014 18.3514 23.7965V23.1273C18.3514 22.91 18.5277 22.7333 18.7453 22.7333C18.9626 22.7333 19.1393 22.9097 19.1393 23.1273V23.7965C19.1393 24.0138 18.9626 24.1904 18.7453 24.1904Z" fill="#103E13"/>
<path d="M17.0891 24.1904C16.8718 24.1904 16.6951 24.014 16.6951 23.7965V23.1273C16.6951 22.91 16.8715 22.7333 17.0891 22.7333C17.3064 22.7333 17.483 22.9097 17.483 23.1273V23.7965C17.4827 24.0138 17.3066 24.1904 17.0891 24.1904Z" fill="#103E13"/>
<path d="M15.4329 24.1904C15.2156 24.1904 15.039 24.014 15.039 23.7965L15.0392 23.1273C15.0392 22.91 15.2156 22.7333 15.4332 22.7333C15.6505 22.7333 15.8271 22.9097 15.8271 23.1273V23.7965C15.8269 24.0138 15.6505 24.1904 15.4329 24.1904Z" fill="#103E13"/>
<path d="M4.1789 26.915C4.1789 27.1323 4.35527 27.309 4.57285 27.309H28.5633C28.7806 27.309 28.9572 27.1326 28.9572 26.915C28.9572 26.6977 28.7809 26.5211 28.5633 26.5211H27.835V15.2102C27.835 14.9929 27.6587 14.8162 27.4411 14.8162L21.009 14.8165V6.6619C21.009 6.52399 20.9371 6.39652 20.8195 6.32509C20.7022 6.25339 20.5555 6.24899 20.4335 6.31245L13.1208 10.1198C12.9903 10.1877 12.909 10.3223 12.909 10.4693V17.5921H5.83181C5.61451 17.5921 5.43786 17.7685 5.43786 17.9861V26.5211H4.57197C4.35467 26.5209 4.17857 26.6972 4.17857 26.9148L4.1789 26.915ZM21.0092 20.783H27.0475V26.5214L21.0092 26.5211V20.783ZM21.0092 18.0454H27.0475V19.9954L21.0092 19.9951V18.0454ZM21.0092 15.604H27.0475V17.2581H21.0092V15.604ZM13.6964 10.7085L20.221 7.31126V26.5208H13.6964V10.7085ZM8.1732 23.3746C8.1732 22.557 8.82099 21.8917 9.6174 21.8917C10.4138 21.8917 11.0619 22.5568 11.0619 23.3746V26.5212H8.1732V23.3746ZM6.22574 18.3799H12.9088V26.5211H11.8498V23.3745C11.8498 22.1226 10.8487 21.1039 9.6174 21.1039C8.38665 21.1039 7.38559 22.1223 7.38559 23.3745V26.5211H6.22574V18.3799Z" fill="#103E13"/>
</svg>
