<svg width="13" height="13" viewBox="0 0 13 13" fill="none" xmlns="http://www.w3.org/2000/svg">
<g clip-path="url(#clip0_0_73)">
<path fill-rule="evenodd" clip-rule="evenodd" d="M12.2996 0.700247C12.4468 0.847384 12.4966 1.0658 12.4279 1.2622L8.63621 12.0955C8.56284 12.3051 8.36894 12.4487 8.14703 12.4578C7.92513 12.4668 7.72017 12.3395 7.62997 12.1365L5.54793 7.45194L0.863322 5.36989C0.660371 5.27969 0.533045 5.07474 0.542099 4.85283C0.551152 4.63093 0.694749 4.43703 0.904374 4.36366L11.7377 0.572007C11.9341 0.503267 12.1525 0.553111 12.2996 0.700247ZM6.60436 7.16153L8.06504 10.4481L10.6212 3.14467L6.60436 7.16153ZM9.8552 2.37864L2.55181 4.93483L5.83833 6.3955L9.8552 2.37864Z" fill="white"/>
</g>
<defs>
<clipPath id="clip0_0_73">
<rect width="12.5293" height="12.5293" fill="white" transform="scale(1.03757)"/>
</clipPath>
</defs>
</svg>
