<svg width="40" height="4" viewBox="0 0 40 4" fill="none" xmlns="http://www.w3.org/2000/svg">
<g opacity="0.2">
<path d="M2.98714 1.60502C2.96572 1.89705 2.85904 2.17637 2.68034 2.40833C2.50163 2.64029 2.25877 2.81469 1.98186 2.9099C1.70495 3.00511 1.40618 3.01693 1.12261 2.94391C0.839046 2.87088 0.58315 2.71624 0.386668 2.49912C0.190186 2.28201 0.0617675 2.01198 0.0173269 1.72256C-0.0271138 1.43313 0.0143783 1.13703 0.13667 0.870967C0.258962 0.604908 0.456676 0.380607 0.705272 0.225872C0.953868 0.0711376 1.24241 -0.00722065 1.53513 0.000523243C1.9396 0.0230611 2.31888 0.204165 2.59071 0.504529C2.86253 0.804892 3.00497 1.20031 2.98714 1.60502Z" fill="white"/>
<path d="M7.6118 1.62682C7.62608 1.8315 7.59809 2.0369 7.52959 2.2303C7.46108 2.4237 7.35351 2.60095 7.21357 2.75099C7.07364 2.90104 6.90432 3.02069 6.71616 3.1025C6.528 3.18431 6.32502 3.22653 6.11984 3.22653C5.91467 3.22653 5.71168 3.18431 5.52352 3.1025C5.33536 3.02069 5.16605 2.90104 5.02611 2.75099C4.88617 2.60095 4.7786 2.4237 4.7101 2.2303C4.64159 2.0369 4.61361 1.8315 4.6279 1.62682C4.61361 1.42214 4.64159 1.21671 4.7101 1.02331C4.7786 0.82991 4.88617 0.652668 5.02611 0.502621C5.16605 0.352574 5.33536 0.232924 5.52352 0.151116C5.71168 0.0693084 5.91467 0.0270865 6.11984 0.0270865C6.32502 0.0270865 6.528 0.0693084 6.71616 0.151116C6.90432 0.232924 7.07364 0.352574 7.21357 0.502621C7.35351 0.652668 7.46108 0.82991 7.52959 1.02331C7.59809 1.21671 7.62608 1.42214 7.6118 1.62682Z" fill="white"/>
<path d="M12.2437 1.64858C12.2223 1.94062 12.1156 2.21993 11.9369 2.45189C11.7582 2.68386 11.5154 2.85825 11.2385 2.95346C10.9616 3.04867 10.6628 3.06049 10.3792 2.98747C10.0957 2.91445 9.83976 2.7598 9.64327 2.54269C9.44679 2.32558 9.31837 2.05555 9.27393 1.76612C9.22949 1.47669 9.27098 1.18059 9.39328 0.91453C9.51557 0.648471 9.71328 0.42417 9.96188 0.269435C10.2105 0.114701 10.499 0.0363426 10.7917 0.0440865C11.1955 0.0684625 11.5737 0.250099 11.8451 0.550042C12.1166 0.849984 12.2597 1.24436 12.2437 1.64858Z" fill="white"/>
<path d="M16.8684 1.67036C16.847 1.96239 16.7403 2.2417 16.5616 2.47367C16.3829 2.70563 16.14 2.88003 15.8631 2.97523C15.5862 3.07044 15.2875 3.08227 15.0039 3.00924C14.7203 2.93622 14.4644 2.78157 14.268 2.56446C14.0715 2.34735 13.943 2.07734 13.8986 1.78792C13.8542 1.49849 13.8957 1.20236 14.018 0.936304C14.1402 0.670245 14.3379 0.445944 14.5865 0.291209C14.8351 0.136475 15.1237 0.0581166 15.4164 0.0658605C15.8202 0.0902365 16.1984 0.271873 16.4698 0.571816C16.7412 0.871758 16.8844 1.26614 16.8684 1.67036Z" fill="white"/>
<path d="M21.4931 1.68488C21.4731 1.97734 21.3675 2.25747 21.1896 2.49045C21.0117 2.72342 20.7692 2.89897 20.4923 2.99527C20.2154 3.09157 19.9164 3.10437 19.6323 3.0321C19.3482 2.95982 19.0916 2.80564 18.8944 2.58873C18.6972 2.37182 18.5681 2.10173 18.5231 1.81205C18.4782 1.52237 18.5193 1.22588 18.6415 0.959399C18.7637 0.692922 18.9615 0.468226 19.2103 0.313241C19.4591 0.158255 19.748 0.0797946 20.0411 0.087648C20.4436 0.112016 20.8206 0.292645 21.0919 0.591011C21.3631 0.889377 21.5071 1.28189 21.4931 1.68488Z" fill="white"/>
<path d="M26.125 1.70664C26.1052 1.9976 26.0007 2.2764 25.8245 2.50876C25.6483 2.74111 25.408 2.9169 25.1331 3.01445C24.8583 3.11199 24.561 3.12705 24.2777 3.05778C23.9944 2.98851 23.7375 2.83792 23.5387 2.62457C23.3399 2.41121 23.2078 2.14439 23.1587 1.85693C23.1096 1.56946 23.1456 1.27392 23.2622 1.00664C23.3789 0.739373 23.5712 0.51203 23.8154 0.35262C24.0596 0.19321 24.3451 0.108672 24.6367 0.109414C25.0456 0.124552 25.4319 0.301168 25.7108 0.600546C25.9898 0.899925 26.1387 1.29767 26.125 1.70664Z" fill="white"/>
<path d="M30.7497 1.72841C30.764 1.93309 30.736 2.13852 30.6675 2.33192C30.599 2.52532 30.4914 2.70256 30.3515 2.85261C30.2116 3.00266 30.0422 3.12231 29.8541 3.20412C29.6659 3.28592 29.4629 3.32812 29.2578 3.32812C29.0526 3.32812 28.8496 3.28592 28.6614 3.20412C28.4733 3.12231 28.304 3.00266 28.164 2.85261C28.0241 2.70256 27.9165 2.52532 27.848 2.33192C27.7795 2.13852 27.7515 1.93309 27.7658 1.72841C27.7515 1.52374 27.7795 1.31831 27.848 1.1249C27.9165 0.931505 28.0241 0.754263 28.164 0.604216C28.304 0.454169 28.4733 0.33454 28.6614 0.252733C28.8496 0.170925 29.0526 0.128703 29.2578 0.128703C29.4629 0.128703 29.6659 0.170925 29.8541 0.252733C30.0422 0.33454 30.2116 0.454169 30.3515 0.604216C30.4914 0.754263 30.599 0.931505 30.6675 1.1249C30.736 1.31831 30.764 1.52374 30.7497 1.72841Z" fill="white"/>
<path d="M35.3744 1.75023C35.3546 2.04118 35.2501 2.32001 35.0739 2.55237C34.8977 2.78472 34.6573 2.96049 34.3825 3.05803C34.1077 3.15558 33.8103 3.17064 33.527 3.10137C33.2438 3.0321 32.9869 2.88151 32.7881 2.66815C32.5893 2.4548 32.4572 2.18797 32.4081 1.90051C32.3589 1.61305 32.3949 1.3175 32.5116 1.05023C32.6283 0.78296 32.8205 0.555618 33.0648 0.396208C33.309 0.236798 33.5944 0.152282 33.8861 0.153023C34.295 0.168162 34.6813 0.344755 34.9602 0.644133C35.2392 0.943512 35.3881 1.34125 35.3744 1.75023Z" fill="white"/>
<path d="M39.9991 1.77198C39.979 2.06445 39.8735 2.34458 39.6956 2.57755C39.5176 2.81053 39.2752 2.98608 38.9983 3.08238C38.7214 3.17868 38.4224 3.1915 38.1383 3.11922C37.8542 3.04694 37.5975 2.89275 37.4003 2.67584C37.2032 2.45892 37.0741 2.18884 37.0291 1.89916C36.9841 1.60947 37.0253 1.31298 37.1475 1.0465C37.2697 0.780027 37.4675 0.555331 37.7163 0.400345C37.9651 0.245359 38.254 0.166921 38.5471 0.174775C38.9495 0.199142 39.3266 0.379749 39.5978 0.678115C39.8691 0.976482 40.0131 1.36899 39.9991 1.77198Z" fill="white"/>
</g>
</svg>
