<svg width="34" height="34" viewBox="0 0 34 34" fill="none" xmlns="http://www.w3.org/2000/svg">
<path d="M28.3333 29.75V26.9167C28.3333 25.4138 27.7363 23.9724 26.6736 22.9097C25.6109 21.847 24.1696 21.25 22.6667 21.25H21.25C20.8743 21.25 20.5139 21.1007 20.2483 20.8351C19.9826 20.5694 19.8333 20.2091 19.8333 19.8333V12.75C19.8333 11.9986 19.5348 11.2779 19.0035 10.7465C18.4721 10.2152 17.7514 9.91666 17 9.91666C16.2485 9.91666 15.5279 10.2152 14.9965 10.7465C14.4652 11.2779 14.1667 11.9986 14.1667 12.75V25.5L10.7667 20.9667C10.5027 20.6148 10.1605 20.3292 9.7671 20.1325C9.37367 19.9357 8.93985 19.8333 8.49999 19.8333H7.88516C6.65974 19.8333 5.66666 20.8264 5.66666 22.0518C5.66666 22.4542 5.77574 22.8494 5.98258 23.1937L9.91666 29.75M17 5.66666V4.25V5.66666ZM25.5 14.1667H26.9167H25.5ZM7.08333 14.1667H8.49999H7.08333ZM10.4026 7.56925L9.40099 6.56766L10.4026 7.56925ZM23.5974 7.56925L24.599 6.56766L23.5974 7.56925Z" fill="#4CAF4F"/>
<path d="M28.3333 29.75V26.9167C28.3333 25.4138 27.7363 23.9724 26.6736 22.9097C25.6109 21.847 24.1696 21.25 22.6667 21.25H21.25C20.8743 21.25 20.5139 21.1007 20.2483 20.8351C19.9826 20.5694 19.8333 20.2091 19.8333 19.8333V12.75C19.8333 11.9986 19.5348 11.2779 19.0035 10.7465C18.4721 10.2152 17.7514 9.91666 17 9.91666V9.91666C16.2485 9.91666 15.5279 10.2152 14.9965 10.7465C14.4652 11.2779 14.1667 11.9986 14.1667 12.75V25.5L10.7667 20.9667C10.5027 20.6148 10.1605 20.3292 9.7671 20.1325C9.37367 19.9357 8.93985 19.8333 8.49999 19.8333H7.88516C6.65974 19.8333 5.66666 20.8264 5.66666 22.0518C5.66666 22.4542 5.77574 22.8494 5.98258 23.1937L9.91666 29.75M17 5.66666V4.25M25.5 14.1667H26.9167M7.08333 14.1667H8.49999M10.4026 7.56925L9.40099 6.56766M23.5974 7.56925L24.599 6.56766" stroke="#4CAF4F" stroke-width="1.39214" stroke-linecap="round" stroke-linejoin="round"/>
</svg>
