<svg width="60" height="72" viewBox="0 0 60 72" fill="none" xmlns="http://www.w3.org/2000/svg">
<path d="M42.222 15.0978L38.5125 16.4232L36.9206 11.5756C33.9962 2.63667 24.6756 -2.11009 16.1112 0.907955C7.5469 3.926 2.98742 13.7293 5.91182 22.6681L7.50367 27.5157L3.77975 28.8483C2.35974 29.3991 1.2066 30.4759 0.560019 31.8549C-0.0865648 33.2339 -0.17686 34.8091 0.307911 36.253L10.6298 67.7948C10.844 68.5095 11.1998 69.1739 11.6759 69.7485C12.152 70.3231 12.7387 70.7961 13.4012 71.1394C14.0637 71.4828 14.7885 71.6895 15.5324 71.7472C16.2764 71.8049 17.0244 71.7125 17.7319 71.4755L56.1742 57.725C57.6129 57.1752 58.7824 56.0888 59.4366 54.6944C60.0908 53.3 60.1788 51.7063 59.682 50.2483L49.353 18.7065C49.1331 17.9937 48.772 17.3326 48.291 16.7624C47.8101 16.1923 47.2192 15.7249 46.5537 15.3881C45.8882 15.0513 45.1616 14.852 44.4174 14.8021C43.6732 14.7523 42.9265 14.8528 42.222 15.0978ZM12.9203 20.1399C12.1318 17.8156 12.2733 15.2764 13.3153 13.0542C14.3572 10.832 16.2188 9.09926 18.5098 8.21897C19.6411 7.83191 20.8388 7.67669 22.0314 7.76258C23.224 7.84848 24.3871 8.17372 25.4512 8.71891C26.5154 9.2641 27.4588 10.0181 28.2253 10.9358C28.9917 11.8536 29.5654 12.9163 29.9121 14.0606L31.4968 18.9082L14.505 24.9875L12.9203 20.1399ZM34.5292 48.1307L37.1655 56.1836C37.2139 56.345 37.1983 56.519 37.1219 56.6692C37.0454 56.8194 36.914 56.9344 36.755 56.9903L33.0598 58.3085C32.9128 58.3492 32.7556 58.3315 32.6214 58.259C32.4871 58.1865 32.3861 58.0648 32.3395 57.9195L29.6816 49.9026C28.2161 49.8227 26.8099 49.2971 25.6513 48.396C24.4927 47.4949 23.6371 46.2613 23.199 44.8605C22.5725 43.0086 22.6868 40.9861 23.5178 39.2165C24.3489 37.4469 25.8324 36.0675 27.6576 35.367C28.5588 35.0591 29.5127 34.9358 30.4626 35.0044C31.4125 35.073 32.3388 35.3321 33.1864 35.7663C34.034 36.2005 34.7855 36.8009 35.3961 37.5317C36.0067 38.2626 36.4639 39.1088 36.7405 40.0201C37.204 41.4431 37.2423 42.9703 36.8508 44.4148C36.4593 45.8592 35.655 47.1581 34.5364 48.1523L34.5292 48.1307Z" fill="#4CAF4F"/>
<path d="M38.3468 16.3367C38.3468 16.4376 31.468 19.0234 22.9109 22.0991C14.3537 25.1748 7.37405 27.6454 7.33803 27.5734C7.30202 27.5013 14.2169 24.8939 22.7812 21.811C31.3455 18.7281 38.3108 16.2431 38.3468 16.3367Z" fill="#263238"/>
<path d="M46.515 17.6621C46.5468 17.7246 46.5733 17.7896 46.5942 17.8565C46.6519 18.0006 46.7167 18.1879 46.8031 18.4184C46.9904 18.9442 47.2497 19.6717 47.5738 20.5793L50.3398 28.6322C51.4923 32.0464 52.868 36.0945 54.3951 40.5891C55.1154 42.8436 55.9653 45.1918 56.7576 47.6624C57.1817 48.9356 57.3649 50.2766 57.2979 51.6169C57.2368 52.3139 57.0385 52.992 56.7144 53.6121C56.3682 54.2302 55.906 54.7755 55.353 55.2184C54.2402 56.0307 53.005 56.6604 51.6939 57.0839L47.9844 58.4165L40.9615 60.9303L29.0694 65.1657L21.0381 67.9892L18.8772 68.7095L18.301 68.8968C18.2393 68.9242 18.1736 68.9412 18.1065 68.9472C18.1065 68.9472 18.1641 68.9472 18.2866 68.8608L18.8484 68.6375L21.0093 67.8236L28.9974 64.8848L40.8679 60.563L47.8764 58.0275L51.5859 56.6878C52.8597 56.2815 54.0591 55.6709 55.137 54.8798C55.6515 54.4689 56.0819 53.9627 56.4047 53.3888C56.7097 52.8153 56.8936 52.1852 56.9449 51.5376C57.0112 50.2463 56.8353 48.9539 56.4263 47.7273C55.6484 45.2783 54.8272 42.9085 54.0853 40.6539C52.5871 36.1521 51.2041 32.0896 50.1093 28.6754C49.0144 25.2612 48.0925 22.5169 47.4586 20.5865C47.1561 19.6429 46.9256 18.9082 46.7383 18.3751L46.5654 17.7989C46.5437 17.7553 46.5268 17.7094 46.515 17.6621Z" fill="#263238"/>
<path d="M26.2315 7.72919C26.2315 7.72919 25.8497 7.54191 25.1438 7.25379C24.1376 6.86719 23.0735 6.6529 21.9961 6.61993C20.3992 6.56517 18.81 6.8653 17.343 7.49869C15.5591 8.2874 14.0337 9.56311 12.942 11.1794C11.8429 12.7911 11.2532 14.6957 11.2493 16.6465C11.2643 18.2453 11.5068 19.8339 11.9696 21.3644C12.3441 22.6754 12.7331 23.7198 12.9924 24.4473C13.1454 24.8168 13.2706 25.1972 13.367 25.5854C13.1624 25.2399 12.9911 24.8757 12.8555 24.4977C12.5602 23.7774 12.1353 22.7546 11.7175 21.4364C11.2047 19.8899 10.9255 18.2754 10.8891 16.6465C10.8699 14.622 11.4734 12.6406 12.6179 10.9705C13.7477 9.29519 15.3354 7.98002 17.1917 7.18176C18.7045 6.5449 20.3432 6.26396 21.9817 6.36062C23.0825 6.41672 24.1638 6.67301 25.1726 7.11693C25.4424 7.24137 25.7024 7.38584 25.9506 7.54911C26.053 7.59412 26.1478 7.65488 26.2315 7.72919Z" fill="#263238"/>
<path d="M26.5628 35.9144C26.6778 35.8448 26.7982 35.7845 26.9229 35.7344C27.2835 35.5717 27.6569 35.4391 28.0394 35.3382C28.6465 35.159 29.2727 35.0526 29.905 35.0213C30.7649 34.975 31.6252 35.105 32.4332 35.403C34.2772 36.0513 35.9699 37.9313 36.8054 40.4451C37.2061 41.7941 37.2061 43.2306 36.8054 44.5796C36.3611 46.0438 35.5648 47.3768 34.486 48.462L34.5293 48.2675C35.4873 50.8966 36.5317 53.749 37.6121 56.7238L37.677 56.9039L37.4969 56.9687L35.8474 57.5161L32.2459 58.719L32.0659 58.7767L32.0082 58.5966C31.0214 55.6146 29.941 52.8342 29.127 50.1043L29.2855 50.2267C27.8773 50.1098 26.5347 49.5812 25.4247 48.7069C24.4204 47.9334 23.5969 46.9502 23.0117 45.8257C22.4836 44.8286 22.2207 43.7124 22.2482 42.5844C22.2815 41.4315 22.5694 40.3003 23.0912 39.2717C23.6129 38.2431 24.3557 37.3426 25.2662 36.6347C25.6411 36.3305 26.0616 36.0874 26.5124 35.9144C26.1055 36.1558 25.7112 36.4179 25.3311 36.6995C24.3308 37.5458 23.5645 38.6346 23.1054 39.8617C22.7113 40.787 22.5269 41.7881 22.5655 42.7931C22.6042 43.7981 22.8647 44.7821 23.3286 45.6745C23.9041 46.7562 24.7078 47.6999 25.684 48.4404C26.7429 49.2715 28.023 49.7725 29.3647 49.881H29.4872L29.5232 49.989C30.3155 52.6685 31.4032 55.4705 32.4044 58.4669L32.1667 58.3517L35.7682 57.1488L37.4104 56.5942L37.2952 56.8391C36.222 53.8642 35.1847 51.0047 34.234 48.3756V48.2675L34.3204 48.1811C35.3675 47.1409 36.1483 45.8635 36.5965 44.4572C36.9786 43.1667 36.9786 41.7932 36.5965 40.5027C35.8114 38.0825 34.1907 36.2458 32.4332 35.5975C31.6553 35.2975 30.8247 35.1579 29.9914 35.1869C29.3692 35.2012 28.7506 35.2857 28.1474 35.439C27.0742 35.7055 26.57 35.9504 26.5628 35.9144Z" fill="#263238"/>
</svg>
