<svg width="3" height="4" viewBox="0 0 3 4" fill="none" xmlns="http://www.w3.org/2000/svg">
<path d="M2.99636 1.60446C3.01068 1.80974 2.98261 2.01576 2.9139 2.20973C2.84519 2.4037 2.73731 2.58147 2.59696 2.73196C2.4566 2.88245 2.28679 3.00245 2.09807 3.0845C1.90936 3.16655 1.70577 3.2089 1.49999 3.2089C1.29421 3.2089 1.09063 3.16655 0.901912 3.0845C0.713195 3.00245 0.54338 2.88245 0.403028 2.73196C0.262676 2.58147 0.154792 2.4037 0.0860828 2.20973C0.0173732 2.01576 -0.0106877 1.80974 0.00364107 1.60446C-0.0106877 1.39918 0.0173732 1.19314 0.0860828 0.999168C0.154792 0.805196 0.262676 0.62743 0.403028 0.47694C0.54338 0.32645 0.713195 0.206445 0.901912 0.124396C1.09063 0.0423466 1.29421 0 1.49999 0C1.70577 0 1.90936 0.0423466 2.09807 0.124396C2.28679 0.206445 2.4566 0.32645 2.59696 0.47694C2.73731 0.62743 2.84519 0.805196 2.9139 0.999168C2.98261 1.19314 3.01068 1.39918 2.99636 1.60446Z" fill="#4CAF4F"/>
</svg>
