<svg width="14" height="36" viewBox="0 0 14 36" fill="none" xmlns="http://www.w3.org/2000/svg">
<path d="M14 35.5246C13.9229 35.4199 13.8597 35.3056 13.8119 35.1846L13.3344 34.1789C12.922 33.3034 12.3649 32.0083 11.6992 30.4238C10.3535 27.2404 8.63876 22.7835 6.8155 17.8347C4.99224 12.8858 3.31368 8.42896 2.0403 5.20932C1.41807 3.64653 0.904395 2.3659 0.520932 1.41086L0.115743 0.376242C0.0595843 0.256928 0.0206291 0.130246 0 0C0.077138 0.104744 0.140355 0.219049 0.188099 0.340053L0.665622 1.34575C1.07079 2.2212 1.63514 3.5163 2.30077 5.1008C3.64651 8.28426 5.36124 12.7411 7.1845 17.69C9.00776 22.6388 10.6863 27.0956 11.9597 30.3153C12.5819 31.8781 13.0956 33.1587 13.4719 34.1137C13.6383 34.5262 13.7757 34.8373 13.8843 35.1484C13.9404 35.2677 13.9794 35.3944 14 35.5246Z" fill="#263238"/>
</svg>
