<svg width="34" height="34" viewBox="0 0 34 34" fill="none" xmlns="http://www.w3.org/2000/svg">
<path d="M3.8958 11.6875V12.0417H4.24997H29.75H30.1041V11.6875V10.0937C30.1041 9.29533 29.787 8.52962 29.2224 7.96506C28.6578 7.4005 27.8921 7.08333 27.0937 7.08333H6.90622C6.10781 7.08333 5.3421 7.4005 4.77753 7.96506C4.21297 8.52962 3.8958 9.29533 3.8958 10.0937V11.6875ZM30.1041 13.8125V13.4583H29.75H4.24997H3.8958V13.8125V23.9062C3.8958 24.7047 4.21297 25.4704 4.77753 26.0349C5.3421 26.5995 6.10781 26.9167 6.90622 26.9167H27.0937C27.8921 26.9167 28.6578 26.5995 29.2224 26.0349C29.787 25.4704 30.1041 24.7047 30.1041 23.9062V13.8125ZM2.47914 10.0937C2.47914 8.91961 2.94556 7.79356 3.7758 6.96333C4.60604 6.13309 5.73208 5.66666 6.90622 5.66666H27.0937C28.2678 5.66666 29.3939 6.13309 30.2241 6.96333C31.0544 7.79356 31.5208 8.91961 31.5208 10.0937V23.9062C31.5208 25.0804 31.0544 26.2064 30.2241 27.0367C29.3939 27.8669 28.2678 28.3333 27.0937 28.3333H6.90622C5.73208 28.3333 4.60604 27.8669 3.7758 27.0367C2.94556 26.2064 2.47914 25.0804 2.47914 23.9062V10.0937ZM22.3125 20.5417H25.5C25.6878 20.5417 25.868 20.6163 26.0008 20.7491C26.1337 20.882 26.2083 21.0621 26.2083 21.25C26.2083 21.4379 26.1337 21.618 26.0008 21.7509C25.868 21.8837 25.6878 21.9583 25.5 21.9583H22.3125C22.1246 21.9583 21.9444 21.8837 21.8116 21.7509C21.6788 21.618 21.6041 21.4379 21.6041 21.25C21.6041 21.0621 21.6788 20.882 21.8116 20.7491C21.9444 20.6163 22.1246 20.5417 22.3125 20.5417Z" fill="#4CAF4F" stroke="#4CAF4F" stroke-width="0.696069"/>
</svg>
