<svg width="46" height="39" viewBox="0 0 46 39" fill="none" xmlns="http://www.w3.org/2000/svg">
<path d="M45.2679 26.4643C45.2679 33.3876 39.6555 39 32.7322 39L13.9286 39C12.0055 39 10.4465 37.441 10.4465 35.5179L10.4465 11.8393C10.4465 7.99299 13.5645 4.87497 17.4108 4.87497L41.7858 4.87497C43.7089 4.87497 45.2679 6.43398 45.2679 8.35712L45.2679 26.4643Z" fill="#E8F5E9"/>
<path d="M19.7171 16.4669C19.5494 16.4669 19.3937 16.4207 19.2554 16.3466V16.3486C19.2554 16.6124 19.1529 16.8602 18.9668 17.0457C18.7807 17.2318 18.5332 17.3343 18.2696 17.3343C18.0995 17.3343 17.9418 17.2871 17.802 17.211C17.7879 17.4523 17.6914 17.6779 17.5193 17.8502C17.3332 18.0363 17.0857 18.1388 16.822 18.1388C16.298 18.1388 15.8726 17.727 15.8419 17.2108C15.6798 17.2984 15.4965 17.3444 15.3075 17.3322C14.7921 17.2984 14.3885 16.8531 14.3885 16.3182V11.8843L13.8836 12.759C13.6913 13.0935 13.3314 13.3012 12.9438 13.3012C12.7549 13.3012 12.5684 13.2517 12.4032 13.157C12.1974 13.0377 12.0502 12.8462 11.989 12.6172C11.9275 12.388 11.9593 12.1482 12.0783 11.9428C12.0784 11.9428 13.7302 9.08243 13.831 8.90673C13.843 8.88031 13.8771 8.80369 13.9061 8.73839C13.9339 8.67604 13.9576 8.61205 13.9804 8.54773C14.4786 7.14144 15.712 6.26789 17.1995 6.26789C19.1312 6.26789 20.7027 7.97198 20.7027 10.0666L20.7029 15.4809C20.7029 15.7444 20.6005 15.992 20.4146 16.1783C20.2285 16.3643 19.9809 16.4669 19.7171 16.4669L19.7171 16.4669ZM17.1995 6.7917C15.9213 6.7917 14.9026 7.51366 14.4742 8.72291C14.4468 8.7997 14.4182 8.87648 14.3849 8.95131C14.2883 9.16805 14.2883 9.16805 14.261 9.19922L14.2574 9.19611C14.1226 9.45059 13.7219 10.1445 12.5318 12.205C12.4829 12.2895 12.47 12.3876 12.4949 12.4814C12.5202 12.5753 12.5807 12.6544 12.6646 12.7028C12.9248 12.8522 13.2812 12.7558 13.4295 12.4973L14.4236 10.7762C14.483 10.6736 14.6031 10.6232 14.7183 10.6544C14.8329 10.6851 14.9124 10.789 14.9124 10.9074V16.3183C14.9124 16.5737 15.1051 16.794 15.3418 16.8096C15.4784 16.8168 15.6057 16.771 15.7013 16.6755C15.7883 16.5886 15.8362 16.4727 15.8362 16.3489V12.81C15.8362 12.6653 15.9535 12.548 16.0982 12.548C16.243 12.548 16.3603 12.6652 16.3603 12.81L16.3601 17.1532C16.3601 17.4079 16.5673 17.6151 16.822 17.6151C16.9457 17.6151 17.0619 17.5672 17.149 17.4802C17.2359 17.3931 17.2839 17.2769 17.2839 17.1532V12.81C17.2839 12.6653 17.401 12.548 17.5459 12.548C17.6906 12.548 17.8079 12.6652 17.8079 12.81L17.8078 16.3081V16.3488C17.8078 16.6033 18.015 16.8105 18.2698 16.8105C18.3933 16.8105 18.5092 16.7625 18.5968 16.6752C18.6838 16.5884 18.7317 16.4725 18.7317 16.3487V12.8098C18.7317 12.6651 18.8488 12.5478 18.9937 12.5478C19.1384 12.5478 19.2557 12.665 19.2557 12.8098L19.2554 15.481C19.2554 15.7358 19.4626 15.9431 19.7171 15.9431C19.841 15.9431 19.9568 15.895 20.0438 15.8082C20.1311 15.7209 20.1788 15.6048 20.1788 15.481L20.179 10.0668C20.179 8.26109 18.8424 6.79176 17.1995 6.79176L17.1995 6.7917Z" fill="#103E13"/>
<path d="M9.42213 20.2299L13.2244 17.9489C13.6829 17.6736 14.2727 17.7906 14.5667 18.2153C14.6741 18.3701 14.7289 18.5504 14.7374 18.734C14.8792 18.66 15.0334 18.6198 15.1904 18.6198C15.2708 18.6198 15.3515 18.6298 15.4313 18.6497C15.6867 18.7135 15.902 18.8731 16.0374 19.0989C16.1729 19.325 16.2125 19.59 16.1486 19.8451C16.0897 20.0813 15.9462 20.28 15.7465 20.4163C15.8861 20.4987 16.0065 20.6111 16.0922 20.7541C16.2277 20.9802 16.2673 21.2451 16.2036 21.5006C16.1398 21.7557 15.9801 21.971 15.754 22.1067L15.7527 22.1075C15.8899 22.1897 16.0082 22.3009 16.0928 22.4419C16.2285 22.668 16.2681 22.9329 16.2043 23.1884C16.1403 23.4437 15.9806 23.659 15.7549 23.7945L11.1122 26.5798C10.2457 27.0994 9.24398 27.2787 8.292 27.0843C7.3315 26.8881 6.53603 26.336 6.05236 25.5297C5.28693 24.254 5.40164 22.7467 6.35115 21.5964C6.39463 21.5439 6.43745 21.4904 6.47634 21.4349C6.51752 21.3764 6.5656 21.3074 6.582 21.2838C6.68028 21.1082 8.284 18.2188 8.28383 18.2192C8.44577 17.927 8.74931 17.7615 9.06237 17.7617C9.2084 17.7617 9.35656 17.7976 9.49324 17.8735C9.65831 17.9657 9.79695 18.1 9.89392 18.262C10.0933 18.5942 10.1003 19.01 9.91263 19.3465L9.42213 20.2299ZM9.44494 18.5314C9.39407 18.4465 9.32417 18.3789 9.23869 18.331C9.06198 18.2332 8.83949 18.2969 8.7422 18.4729C7.59466 20.5403 7.20348 21.2449 7.05252 21.4956L7.05596 21.4964C7.04333 21.5384 7.04333 21.5384 6.90518 21.7358C6.85825 21.8026 6.80723 21.8667 6.75521 21.9299C5.93874 22.9191 5.84394 24.164 6.50138 25.2602C6.90862 25.9391 7.58168 26.4046 8.39664 26.571C9.22046 26.7385 10.0888 26.5826 10.8424 26.1304L15.4855 23.3451C15.5915 23.2816 15.6663 23.1807 15.6962 23.0611C15.726 22.9416 15.7075 22.8174 15.6438 22.7114C15.5129 22.4932 15.2285 22.4215 15.0103 22.5529L12.7198 23.9271C12.5958 24.0016 12.4346 23.9615 12.3603 23.8373C12.2858 23.7133 12.326 23.5523 12.4501 23.4778L14.7407 22.1037L15.4847 21.6574C15.5907 21.5937 15.6656 21.4928 15.6955 21.3735C15.7254 21.2539 15.7068 21.1295 15.6432 21.0237C15.5121 20.8053 15.2277 20.7343 15.0097 20.8652L11.9751 22.6857C11.8507 22.7603 11.6901 22.72 11.6156 22.5959C11.5411 22.4719 11.5814 22.3109 11.7053 22.2364L15.4297 20.0022C15.5357 19.9385 15.6105 19.8378 15.6404 19.7182C15.6702 19.5987 15.6517 19.4745 15.5882 19.3685C15.5247 19.2627 15.4238 19.1879 15.3042 19.158C15.1839 19.1282 15.0602 19.1467 14.9545 19.21L14.2651 19.6237C14.2649 19.6237 14.2649 19.6238 14.2648 19.6238H14.2646L11.2302 21.4443C11.1058 21.5191 10.945 21.4787 10.8707 21.3545C10.7962 21.2305 10.8365 21.0695 10.9604 20.995L13.995 19.1746C14.101 19.1109 14.176 19.01 14.2059 18.8907C14.2387 18.7598 14.2137 18.6259 14.136 18.5137C14.0011 18.3186 13.7126 18.2668 13.4939 18.3982L8.8542 21.1816C8.75263 21.2423 8.62252 21.2276 8.53736 21.1453C8.45205 21.063 8.43285 20.9335 8.49027 20.83L9.45506 19.0917C9.55186 18.918 9.54809 18.7034 9.44489 18.5314L9.44494 18.5314Z" fill="#103E13"/>
<path d="M27.5913 25.5295C27.1077 26.3359 26.3125 26.8879 25.3518 27.0841C24.3996 27.2782 23.3983 27.0992 22.5316 26.5796L17.8885 23.7942C17.6626 23.6587 17.5028 23.4434 17.4388 23.1878C17.3753 22.9326 17.415 22.6676 17.5504 22.4419C17.6349 22.3008 17.7533 22.1895 17.8907 22.1073L17.8893 22.1065C17.6634 21.971 17.5036 21.7557 17.4399 21.5004C17.376 21.2451 17.4157 20.9799 17.5512 20.7539C17.6385 20.6087 17.7581 20.4951 17.8946 20.4145C17.6964 20.2782 17.5536 20.0802 17.4949 19.8452C17.4309 19.5897 17.4706 19.3247 17.6062 19.0989C17.7415 18.873 17.9569 18.7134 18.2123 18.6495C18.292 18.6295 18.3729 18.6197 18.453 18.6197C18.6102 18.6199 18.7644 18.6597 18.9061 18.7339C18.9148 18.5503 18.9695 18.37 19.0768 18.2152C19.371 17.7908 19.9603 17.6733 20.4194 17.9488L24.2216 20.2294L23.7315 19.3467C23.5435 19.0097 23.5504 18.5939 23.7497 18.2615C23.8469 18.0997 23.9857 17.9653 24.1516 17.8723C24.2879 17.7968 24.4356 17.761 24.5813 17.761C24.8941 17.7612 25.198 17.9263 25.3598 18.2185C25.9236 19.2343 26.9874 21.1501 27.0622 21.2838C27.0782 21.307 27.1262 21.3759 27.1674 21.4344C27.2066 21.4901 27.249 21.5432 27.2928 21.5961C28.2421 22.7469 28.3566 24.2539 27.5912 25.5295L27.5913 25.5295ZM26.8885 21.93C26.8364 21.8668 26.7852 21.8023 26.7386 21.7359C26.5968 21.5347 26.5932 21.5295 26.5825 21.4768C26.4168 21.2026 26.0125 20.4748 24.9013 18.4727C24.8038 18.297 24.5823 18.2328 24.4059 18.3303C24.3191 18.3788 24.2494 18.4466 24.1985 18.5314C24.0955 18.7032 24.0915 18.9178 24.1888 19.0921L25.1533 20.8298C25.2109 20.9335 25.1917 21.0628 25.1065 21.1452C25.0215 21.2277 24.8916 21.2422 24.7895 21.1814L20.1498 18.398C19.9311 18.2669 19.6428 18.3183 19.5076 18.5135C19.4298 18.6258 19.405 18.7597 19.4375 18.8904C19.4674 19.0099 19.5424 19.1106 19.6485 19.1743C19.6489 19.1744 19.649 19.1748 19.6493 19.1749L22.683 20.9949C22.807 21.0694 22.8472 21.2302 22.7727 21.3544C22.6982 21.4782 22.5376 21.5188 22.4132 21.4441L18.6888 19.2099C18.5832 19.1466 18.4588 19.1279 18.3394 19.1579C18.2196 19.1877 18.1188 19.2626 18.0553 19.3687C17.9917 19.4745 17.9733 19.5988 18.0028 19.7182C18.0327 19.8377 18.1077 19.9386 18.2137 20.0022L18.9384 20.4369L21.9379 22.2365C22.0619 22.311 22.1021 22.4718 22.0277 22.596C21.9532 22.7199 21.7925 22.7602 21.6682 22.6857L18.6339 20.8653C18.4157 20.734 18.1315 20.8052 18.0002 21.0238C17.9366 21.1298 17.9182 21.254 17.9477 21.3734C17.9776 21.4929 18.0526 21.5936 18.1587 21.6574L18.9026 22.1037L21.193 23.4779C21.317 23.5524 21.3572 23.7132 21.2827 23.8374C21.2082 23.9613 21.0476 24.002 20.9232 23.9271L18.6329 22.553C18.5272 22.4896 18.4034 22.4709 18.2833 22.501C18.1638 22.5308 18.0627 22.6056 17.9992 22.7115C17.9357 22.8175 17.9172 22.9418 17.9467 23.0611C17.9766 23.1806 18.0516 23.2813 18.1577 23.3451L22.8008 26.1305C23.5543 26.5825 24.4232 26.739 25.2466 26.571C26.0614 26.4047 26.7344 25.9392 27.1417 25.2602C27.7998 24.1638 27.7051 22.9188 26.8888 21.9299L26.8885 21.93Z" fill="#103E13"/>
</svg>
