<svg width="34" height="34" viewBox="0 0 34 34" fill="none" xmlns="http://www.w3.org/2000/svg">
<g clip-path="url(#clip0_6_800)">
<path d="M32.7888 27.2277L32.7888 27.2277C32.9224 27.1351 33.0362 27.0169 33.1237 26.8799L33.4222 27.0705L33.1237 26.8799C33.2111 26.7429 33.2705 26.5899 33.2983 26.4298C33.3261 26.2696 33.3218 26.1056 33.2856 25.9471L33.6309 25.8683L33.2856 25.9471C33.2495 25.7887 33.1822 25.639 33.0877 25.5068L33.0861 25.5046C31.756 23.6139 29.9436 22.114 27.8376 21.161L27.324 20.9285L27.7563 20.5667C29.0383 19.4936 29.9584 18.0516 30.3914 16.4368C30.8244 14.822 30.7492 13.113 30.1761 11.5425C29.603 9.972 28.5598 8.61628 27.1885 7.65993C25.8172 6.70358 24.1845 6.19308 22.5127 6.19793L22.5111 6.19794C21.7671 6.1967 21.0266 6.29943 20.311 6.50315L20.3047 6.50496L20.3047 6.5049C20.1457 6.54696 19.9967 6.62022 19.8664 6.72041C19.736 6.8206 19.6269 6.94572 19.5454 7.08849C19.4638 7.23126 19.4115 7.38882 19.3914 7.552C19.3714 7.71519 19.384 7.88073 19.4285 8.03899C19.4731 8.19726 19.5486 8.34508 19.6508 8.47386L19.3734 8.69404L19.6508 8.47386C19.7531 8.60264 19.8799 8.70979 20.0239 8.78909L19.8531 9.09934L20.0239 8.78909C20.1679 8.86839 20.3263 8.91825 20.4897 8.93576C20.6532 8.95327 20.8185 8.93809 20.9761 8.8911L20.9802 8.88988L20.9802 8.88991C21.4785 8.74776 21.9942 8.67612 22.5124 8.6771M32.7888 27.2277L22.5117 9.03127M32.7888 27.2277L32.7847 27.2306C32.5779 27.3784 32.33 27.4575 32.0758 27.4568C31.8771 27.4556 31.6814 27.4071 31.5051 27.3153C31.3289 27.2236 31.177 27.0913 31.0619 26.9293M32.7888 27.2277L30.7726 27.1336M22.5124 8.6771L22.5117 9.03127M22.5124 8.6771C22.5121 8.6771 22.5119 8.6771 22.5117 8.6771V9.03127M22.5124 8.6771C24.015 8.67728 25.4561 9.27428 26.5186 10.3368C27.5813 11.3995 28.1784 12.8409 28.1784 14.3438C28.1784 15.8467 27.5813 17.288 26.5186 18.3507C25.4559 19.4134 24.0146 20.0104 22.5117 20.0104C22.1829 20.0104 21.8677 20.141 21.6352 20.3735C21.4027 20.606 21.2721 20.9213 21.2721 21.25C21.2721 21.5788 21.4027 21.8941 21.6352 22.1265C21.8677 22.359 22.1829 22.4896 22.5117 22.4896H22.5121C24.1885 22.4914 25.8401 22.8956 27.3279 23.6682C28.8156 24.4408 30.0961 25.5591 31.0619 26.9293M22.5117 9.03127C23.9207 9.03127 25.2719 9.59097 26.2682 10.5873C27.2645 11.5835 27.8242 12.9348 27.8242 14.3438C27.8242 15.7527 27.2645 17.104 26.2682 18.1003C25.2719 19.0966 23.9207 19.6563 22.5117 19.6563C22.089 19.6563 21.6836 19.8242 21.3848 20.1231C21.0859 20.422 20.918 20.8273 20.918 21.25C20.918 21.6727 21.0859 22.0781 21.3848 22.377C21.6836 22.6759 22.089 22.8438 22.5117 22.8438C24.1315 22.8455 25.7271 23.2361 27.1646 23.9826C28.6021 24.729 29.8395 25.8097 30.7726 27.1336M31.0619 26.9293C31.0618 26.9291 31.0617 26.9289 31.0615 26.9287L30.7726 27.1336M31.0619 26.9293C31.062 26.9294 31.0621 26.9295 31.0621 26.9296L30.7726 27.1336M16.9314 20.5673L16.5012 20.9292L17.0133 21.161C19.1194 22.114 20.9318 23.6139 22.2619 25.5046L22.2669 25.5118L22.2724 25.5187C22.3757 25.6511 22.451 25.8031 22.4939 25.9655C22.5367 26.1279 22.546 26.2972 22.5214 26.4634C22.4967 26.6295 22.4386 26.7888 22.3505 26.9318C22.2624 27.0748 22.1462 27.1983 22.0088 27.295C21.8715 27.3917 21.716 27.4595 21.5517 27.4942C21.3874 27.529 21.2178 27.53 21.0531 27.4972C20.8884 27.4644 20.7321 27.3984 20.5936 27.3034C20.4552 27.2083 20.3375 27.0861 20.2477 26.9442L20.2432 26.9371L20.2383 26.9301C19.2744 25.5573 17.9942 24.4368 16.5059 23.6632C15.0176 22.8896 13.3648 22.4858 11.6875 22.4858C10.0101 22.4858 8.35741 22.8896 6.86907 23.6632C5.38074 24.4368 4.10053 25.5573 3.13668 26.9301L3.1359 26.9312C3.02259 27.094 2.87152 27.2268 2.69563 27.3183C2.51974 27.4098 2.32428 27.4574 2.126 27.4568L2.12383 27.4568C1.86953 27.4576 1.62141 27.3785 1.41452 27.2306L1.41282 27.2294C1.14466 27.0401 0.962533 26.7522 0.906374 26.4288C0.850233 26.1055 0.924571 25.7732 1.11308 25.5046C2.44321 23.6139 4.25554 22.114 6.36162 21.161L6.87381 20.9292L6.4436 20.5673C5.16504 19.4917 4.24814 18.049 3.81723 16.4347C3.38631 14.8204 3.46222 13.1126 4.03465 11.5429C4.60709 9.97325 5.64837 8.61756 7.01732 7.65965C8.38627 6.70174 10.0167 6.18796 11.6875 6.18796C13.3583 6.18796 14.9887 6.70174 16.3576 7.65965C17.7266 8.61756 18.7679 9.97325 19.3403 11.5429C19.9127 13.1126 19.9887 14.8204 19.5577 16.4347C19.1268 18.049 18.2099 19.4917 16.9314 20.5673ZM6.97582 11.1955C6.35316 12.1274 6.02082 13.223 6.02082 14.3438C6.02082 15.8467 6.61784 17.288 7.68054 18.3507C8.74325 19.4134 10.1846 20.0104 11.6875 20.0104C12.8082 20.0104 13.9038 19.6781 14.8357 19.0554C15.7676 18.4328 16.4939 17.5478 16.9228 16.5123C17.3517 15.4769 17.4639 14.3375 17.2453 13.2383C17.0266 12.139 16.4869 11.1293 15.6944 10.3368C14.9019 9.54433 13.8922 9.00463 12.793 8.78598C11.6938 8.56733 10.5544 8.67955 9.51894 9.10845C8.4835 9.53735 7.59848 10.2637 6.97582 11.1955Z" fill="#4CAF4F" stroke="#4CAF4F" stroke-width="0.696069"/>
</g>
<defs>
<clipPath id="clip0_6_800">
<rect width="33.4113" height="33.4113" fill="white" transform="scale(1.01762)"/>
</clipPath>
</defs>
</svg>
